<svg width="183" height="49" viewBox="0 0 183 49" fill="none" xmlns="http://www.w3.org/2000/svg">
<path d="M6.65625 37.0625L6.5 37.7188C6.5 37.8438 6.55208 37.9583 6.65625 38.0625C6.78125 38.1667 6.92708 38.2188 7.09375 38.2188C7.26042 38.2188 7.39583 38.1354 7.5 37.9688C10.6042 33.8438 13.1771 30.2188 15.2188 27.0938C17.2604 23.9479 18.75 21.6354 19.6875 20.1562C20.6458 18.6771 21.4062 17.5 21.9688 16.625C23.4688 14.3333 24.9583 12.2812 26.4375 10.4688C20.8125 11.8854 16.4062 12.5938 13.2188 12.5938C10.0312 12.5938 7.73958 12.3958 6.34375 12C4.94792 11.5833 4.03125 11.125 3.59375 10.625C3.15625 10.1042 2.9375 9.58333 2.9375 9.0625C2.9375 8.52083 2.95833 8 3 7.5C3.08333 6.45833 3.70833 5.60417 4.875 4.9375C6.0625 4.27083 7.04167 3.9375 7.8125 3.9375C8.58333 3.9375 8.96875 4.05208 8.96875 4.28125C8.96875 4.51042 8.79167 4.82292 8.4375 5.21875C8.10417 5.59375 7.9375 5.85417 7.9375 6C7.9375 6.66667 10.3438 7 15.1562 7C19.9688 7 25.5 6.36458 31.75 5.09375C35.3333 2.17708 38.4271 0.71875 41.0312 0.71875C42.7604 0.71875 43.9062 1.20833 44.4688 2.1875C44.8438 2.77083 45.0312 3.35417 45.0312 3.9375C45.0312 4.52083 44.6875 5.10417 44 5.6875C43.3333 6.27083 42.4271 6.77083 41.2812 7.1875C39.1979 7.9375 36.7396 8.53125 33.9062 8.96875C32.7188 10.4896 31.0312 12.8542 28.8438 16.0625C26.6771 19.2708 25.1979 21.4375 24.4062 22.5625C23.6146 23.6875 22.3333 25.6875 20.5625 28.5625C18.8125 31.4375 17.2917 33.9271 16 36.0312C14.7083 38.1146 13.3333 40.1771 11.875 42.2188C8.89583 46.4271 6.23958 48.5312 3.90625 48.5312C2.92708 48.5312 2.08333 48.2708 1.375 47.75C0.666667 47.2292 0.3125 46.3854 0.3125 45.2188C0.3125 44.0312 0.958333 42.5625 2.25 40.8125C3.5625 39.0417 4.52083 37.9062 5.125 37.4062C5.72917 36.9062 6.13542 36.6562 6.34375 36.6562C6.55208 36.6562 6.65625 36.7917 6.65625 37.0625ZM54.7188 37.1875C55.1146 37.1875 55.3542 37.4896 55.4375 38.0938C55.5208 38.6979 55.5625 39.3229 55.5625 39.9688C55.5625 40.6146 55.5 41.0625 55.375 41.3125C54.7708 42.4792 53.4479 43.9062 51.4062 45.5938C49.3646 47.2604 47.4271 48.0938 45.5938 48.0938C44.4688 48.0938 43.4271 47.75 42.4688 47.0625C41.5104 46.3958 41.0312 45.2188 41.0312 43.5312C41.0312 41.8438 41.4792 40.1875 42.375 38.5625C37.2083 45.0417 33.1562 48.2812 30.2188 48.2812C29.0521 48.2812 28.1042 47.8646 27.375 47.0312C26.6667 46.1979 26.3125 45.3438 26.3125 44.4688C26.3125 43.5729 26.4375 42.6562 26.6875 41.7188C26.9375 40.7604 27.1979 39.9062 27.4688 39.1562C27.7604 38.4062 28.1771 37.4792 28.7188 36.375C29.2812 35.2708 29.6979 34.4688 29.9688 33.9688C30.2396 33.4688 30.6667 32.7188 31.25 31.7188C31.8542 30.6979 32.6354 29.3333 33.5938 27.625C34.5729 25.9167 35.375 24.6562 36 23.8438C36.6458 23.0104 37.2708 22.5938 37.875 22.5938C38.4792 22.5729 39.0104 22.8125 39.4688 23.3125C39.9271 23.8125 40.1562 24.2188 40.1562 24.5312C40.1562 24.8438 39.4583 26.25 38.0625 28.75C33.9375 36.2083 31.875 40.5521 31.875 41.7812C31.875 42.0938 31.9896 42.25 32.2188 42.25C33.2188 42.25 35.7083 40.0833 39.6875 35.75C43.6667 31.4167 45.9688 28.6458 46.5938 27.4375C47.2188 26.2083 47.8229 25.1771 48.4062 24.3438C49.0104 23.5104 49.4583 23 49.75 22.8125C50.6458 22.2292 51.8021 21.9167 53.2188 21.875C53.4479 21.875 53.625 21.8854 53.75 21.9062C53.875 21.9271 54.0208 22.1042 54.1875 22.4375C54.3542 22.7708 54.4375 23.0312 54.4375 23.2188C54.25 23.8021 53.4167 25.3542 51.9375 27.875C50.4792 30.3958 49.6667 31.8229 49.5 32.1562C47.0417 37.2396 45.8125 40.5521 45.8125 42.0938C45.8125 42.9688 46.1458 43.4062 46.8125 43.4062C48.0208 43.2396 49.4792 42.2708 51.1875 40.5C51.8125 39.8542 52.4271 39.1979 53.0312 38.5312C53.6562 37.8646 54.0417 37.4792 54.1875 37.375C54.3333 37.25 54.5104 37.1875 54.7188 37.1875ZM63.7812 29.9688C68.6979 24.3854 72.8854 21.5938 76.3438 21.5938C77.1979 21.5938 77.8958 21.8542 78.4375 22.375C79 22.875 79.2812 23.5312 79.2812 24.3438C79.2812 25.1562 78.6979 26.5208 77.5312 28.4375C76.3854 30.3333 75.3229 31.9375 74.3438 33.25C73.8229 33.9167 73.2292 34.25 72.5625 34.25C71.9167 34.25 71.4062 34.0104 71.0312 33.5312C70.6771 33.0521 70.5 32.4896 70.5 31.8438C70.5 30.4062 71.2708 28.7812 72.8125 26.9688L72.75 26.9062C72.0625 26.9688 70.3542 28.3229 67.625 30.9688C64.9167 33.6146 62.6042 35.9896 60.6875 38.0938C58.7917 40.1771 56.7292 42.7188 54.5 45.7188C53.8542 46.6146 53.3021 47.0625 52.8438 47.0625C52.4062 47.0625 51.8229 46.9271 51.0938 46.6562C50.3438 46.3646 49.8958 46.1562 49.75 46.0312C49.5833 45.9062 49.5 45.6979 49.5 45.4062C49.5 45.1146 49.5833 44.7812 49.75 44.4062C49.9167 44.0104 50.2292 43.4583 50.6875 42.75C51.125 42.0417 51.7917 40.8958 52.6875 39.3125C53.6042 37.7292 55.0208 35.3333 56.9375 32.125C58.8542 28.9167 60 26.9792 60.375 26.3125C61.1667 24.9375 61.8125 23.9375 62.3125 23.3125C63.25 22.125 64.8333 21.5312 67.0625 21.5312C67.5625 21.5312 67.8125 21.8438 67.8125 22.4688C67.8125 23.4479 66.9062 25.2917 65.0938 28L63.7812 29.9688ZM92.25 42.1875C92.25 43.1042 92.875 43.5625 94.125 43.5625C94.7917 43.5625 95.625 43.2292 96.625 42.5625C97.6458 41.8958 98.5625 41.1667 99.375 40.375C101.542 38.2292 102.771 37.1562 103.062 37.1562C103.604 37.1562 103.875 37.9375 103.875 39.5C103.875 41.0625 103.385 42.1354 102.406 42.7188C99.4271 45.4062 97.125 47.0417 95.5 47.625C94.5833 47.9375 93.5729 48.0833 92.4688 48.0625C91.3646 48.0417 90.2708 47.5625 89.1875 46.625C88.1042 45.6875 87.5625 44.5521 87.5625 43.2188C87.5625 41.8646 87.9167 40.3333 88.625 38.625C89.3333 36.9167 90.0521 35.4583 90.7812 34.25C91.5312 33.0208 92.4479 31.6042 93.5312 30C94.6146 28.375 95.1875 27.3646 95.25 26.9688L95.1875 26.9062C94.5 26.9688 92.7917 28.3229 90.0625 30.9688C87.3542 33.6146 85.1146 35.9167 83.3438 37.875C81.5729 39.8333 79.4583 42.4479 77 45.7188C76.3125 46.6146 75.75 47.0625 75.3125 47.0625C74.875 47.0625 74.2917 46.9271 73.5625 46.6562C72.8125 46.3646 72.3542 46.1562 72.1875 46.0312C72.0208 45.9062 71.9375 45.7188 71.9375 45.4688C71.9375 45.2188 72.0104 44.9167 72.1562 44.5625C72.3021 44.1875 72.4479 43.8854 72.5938 43.6562C72.7188 43.4062 72.9375 43.0312 73.25 42.5312C73.5625 42.0312 74.1771 40.9792 75.0938 39.375C76.0312 37.75 77.4583 35.3333 79.375 32.125C81.2917 28.9167 82.4375 26.9792 82.8125 26.3125C83.6042 24.9375 84.25 23.9375 84.75 23.3125C85.6875 22.125 87.2708 21.5312 89.5 21.5312C90 21.5312 90.25 21.8438 90.25 22.4688C90.25 23.4479 89.3438 25.2917 87.5312 28L86.2188 29.9688C89.8229 25.9688 92.8646 23.4375 95.3438 22.375C96.5521 21.8542 97.6354 21.5938 98.5938 21.5938C99.5729 21.5938 100.344 21.8542 100.906 22.375C101.49 22.8958 101.781 23.4792 101.781 24.125C101.781 24.75 101.562 25.5104 101.125 26.4062C100.688 27.2812 100.24 28.0729 99.7812 28.7812C99.3438 29.4688 98.7604 30.3438 98.0312 31.4062C97.3021 32.4688 96.9062 33.0521 96.8438 33.1562C96.7812 33.2396 96.6146 33.4896 96.3438 33.9062C96.0938 34.3021 95.9062 34.5938 95.7812 34.7812C95.6562 34.9688 95.4479 35.3021 95.1562 35.7812C94.8646 36.2396 94.625 36.625 94.4375 36.9375C94.2708 37.25 94.0521 37.6354 93.7812 38.0938C93.5312 38.5521 93.3229 38.9479 93.1562 39.2812C93.0104 39.6146 92.8542 39.9792 92.6875 40.375C92.3958 41.1042 92.25 41.7083 92.25 42.1875ZM158.5 5.15625C159.604 5.15625 160.667 5.61458 161.688 6.53125C162.729 7.44792 163.25 8.46875 163.25 9.59375C163.25 10.7188 162.969 12.1875 162.406 14C161.844 15.7917 161.052 17.7083 160.031 19.75C159.031 21.7708 157.802 23.875 156.344 26.0625C154.906 28.2292 153.333 30.3438 151.625 32.4062C149.938 34.4479 148.073 36.3958 146.031 38.25C144.01 40.0833 141.958 41.6875 139.875 43.0625C135.333 46.0625 130.896 47.5625 126.562 47.5625C125.062 47.5625 123.729 47.1667 122.562 46.375C121.396 45.5833 120.49 44.8021 119.844 44.0312C118.365 42.2604 117.625 39.8125 117.625 36.6875C117.625 33.5417 118.656 29.8542 120.719 25.625C122.802 21.3958 125.635 17.4062 129.219 13.6562C132.823 9.88542 136.854 6.80208 141.312 4.40625C145.771 1.98958 150.01 0.78125 154.031 0.78125C154.823 0.78125 155.573 0.958333 156.281 1.3125C156.99 1.66667 157.344 2.08333 157.344 2.5625C157.344 3.02083 157.229 3.40625 157 3.71875C156.771 4.01042 156.552 4.33333 156.344 4.6875C156.135 5.02083 155.958 5.26042 155.812 5.40625C156.5 5.23958 157.396 5.15625 158.5 5.15625ZM146.844 19.5938C146.844 20.0104 146.698 20.2188 146.406 20.2188C146.115 20.2188 145.51 19.7188 144.594 18.7188C143.677 17.6979 143.219 16.8438 143.219 16.1562C143.219 14.5521 144.292 12.7292 146.438 10.6875C148.604 8.64583 151.01 7.09375 153.656 6.03125C150.74 6.19792 147.354 7.4375 143.5 9.75C139.646 12.0625 136.271 14.8542 133.375 18.125C130.479 21.375 128.135 24.7708 126.344 28.3125C124.573 31.8542 123.688 34.7292 123.688 36.9375C123.688 38.2917 123.99 39.4583 124.594 40.4375C125.198 41.3958 126.219 41.875 127.656 41.875C129.115 41.875 130.865 41.375 132.906 40.375C134.948 39.375 136.938 38.0625 138.875 36.4375C145.542 30.7917 150.75 24.5208 154.5 17.625C156.021 14.7917 156.781 12.8333 156.781 11.75C156.781 11.3125 156.635 11.0938 156.344 11.0938C155.49 11.0938 154.281 11.6458 152.719 12.75C151.156 13.8333 149.771 15.0312 148.562 16.3438C147.354 17.6562 146.75 18.6042 146.75 19.1875L146.844 19.5938ZM171.375 42.1875C171.375 43.1042 172 43.5625 173.25 43.5625C173.917 43.5625 174.75 43.2292 175.75 42.5625C176.771 41.8958 177.688 41.1667 178.5 40.375C180.667 38.2292 181.896 37.1562 182.188 37.1562C182.729 37.1562 183 37.9375 183 39.5C183 41.0625 182.51 42.1354 181.531 42.7188C178.552 45.4062 176.25 47.0417 174.625 47.625C173.708 47.9375 172.698 48.0833 171.594 48.0625C170.49 48.0417 169.396 47.5625 168.312 46.625C167.229 45.6875 166.688 44.5521 166.688 43.2188C166.688 41.8646 167.042 40.3333 167.75 38.625C168.458 36.9167 169.177 35.4583 169.906 34.25C170.656 33.0208 171.573 31.6042 172.656 30C173.74 28.375 174.312 27.3646 174.375 26.9688L174.312 26.9062C173.625 26.9688 171.917 28.3229 169.188 30.9688C166.479 33.6146 164.24 35.9167 162.469 37.875C160.698 39.8333 158.583 42.4479 156.125 45.7188C155.438 46.6146 154.875 47.0625 154.438 47.0625C154 47.0625 153.417 46.9271 152.688 46.6562C151.938 46.3646 151.479 46.1562 151.312 46.0312C151.146 45.9062 151.062 45.7188 151.062 45.4688C151.062 45.2188 151.135 44.9167 151.281 44.5625C151.427 44.1875 151.573 43.8854 151.719 43.6562C151.844 43.4062 152.062 43.0312 152.375 42.5312C152.688 42.0312 153.302 40.9792 154.219 39.375C155.156 37.75 156.583 35.3333 158.5 32.125C160.417 28.9167 161.562 26.9792 161.938 26.3125C162.729 24.9375 163.375 23.9375 163.875 23.3125C164.812 22.125 166.396 21.5312 168.625 21.5312C169.125 21.5312 169.375 21.8438 169.375 22.4688C169.375 23.4479 168.469 25.2917 166.656 28L165.344 29.9688C168.948 25.9688 171.99 23.4375 174.469 22.375C175.677 21.8542 176.76 21.5938 177.719 21.5938C178.698 21.5938 179.469 21.8542 180.031 22.375C180.615 22.8958 180.906 23.4792 180.906 24.125C180.906 24.75 180.688 25.5104 180.25 26.4062C179.812 27.2812 179.365 28.0729 178.906 28.7812C178.469 29.4688 177.885 30.3438 177.156 31.4062C176.427 32.4688 176.031 33.0521 175.969 33.1562C175.906 33.2396 175.74 33.4896 175.469 33.9062C175.219 34.3021 175.031 34.5938 174.906 34.7812C174.781 34.9688 174.573 35.3021 174.281 35.7812C173.99 36.2396 173.75 36.625 173.562 36.9375C173.396 37.25 173.177 37.6354 172.906 38.0938C172.656 38.5521 172.448 38.9479 172.281 39.2812C172.135 39.6146 171.979 39.9792 171.812 40.375C171.521 41.1042 171.375 41.7083 171.375 42.1875Z" fill="black"/>
</svg>
